<svg width="24" height="25" viewBox="0 0 24 25" fill="none" xmlns="http://www.w3.org/2000/svg">
<path d="M1 1.59741L1.32102 1.70402C2.92008 2.23704 3.71961 2.50355 4.17632 3.13832C4.63423 3.7731 4.63423 4.61624 4.63423 6.30131V9.47157C4.63423 12.8974 4.63423 14.6116 5.69906 15.6752C6.76268 16.74 8.47682 16.74 11.9027 16.74H21.594" stroke="#222F38" stroke-width="1.5" stroke-linecap="round"/>
<path d="M4.63428 5.23169H18.5049C20.9944 5.23169 22.2397 5.23169 22.7776 6.04818C23.3166 6.86588 22.826 8.00945 21.8448 10.2978L21.3263 11.5092C20.8684 12.5777 20.6394 13.1107 20.1851 13.4111C19.7297 13.7116 19.1482 13.7116 17.9864 13.7116H4.63428M7.6628 19.7686C8.14473 19.7686 8.60692 19.96 8.9477 20.3008C9.28847 20.6416 9.47992 21.1038 9.47992 21.5857C9.47992 22.0676 9.28847 22.5298 8.9477 22.8706C8.60692 23.2114 8.14473 23.4028 7.6628 23.4028C7.18087 23.4028 6.71868 23.2114 6.37791 22.8706C6.03713 22.5298 5.84569 22.0676 5.84569 21.5857C5.84569 21.1038 6.03713 20.6416 6.37791 20.3008C6.71868 19.96 7.18087 19.7686 7.6628 19.7686ZM18.5655 19.7686C19.0474 19.7686 19.5096 19.96 19.8504 20.3008C20.1912 20.6416 20.3826 21.1038 20.3826 21.5857C20.3826 22.0676 20.1912 22.5298 19.8504 22.8706C19.5096 23.2114 19.0474 23.4028 18.5655 23.4028C18.0836 23.4028 17.6214 23.2114 17.2806 22.8706C16.9398 22.5298 16.7484 22.0676 16.7484 21.5857C16.7484 21.1038 16.9398 20.6416 17.2806 20.3008C17.6214 19.96 18.0836 19.7686 18.5655 19.7686Z" stroke="#222F38" stroke-width="1.5"/>
</svg>
