<svg width="20" height="23" viewBox="0 0 20 23" fill="none" xmlns="http://www.w3.org/2000/svg">
<path d="M10.2656 11.5C13.027 11.5 15.2656 9.26142 15.2656 6.5C15.2656 3.73858 13.027 1.5 10.2656 1.5C7.5042 1.5 5.26562 3.73858 5.26562 6.5C5.26562 9.26142 7.5042 11.5 10.2656 11.5Z" stroke="#222F38" stroke-width="1.5"/>
<path d="M15.2657 13.5H15.6177C16.3488 13.5002 17.0546 13.7674 17.6026 14.2513C18.1506 14.7352 18.503 15.4026 18.5937 16.128L18.9847 19.252C19.0199 19.5334 18.9948 19.8191 18.9111 20.0901C18.8274 20.3611 18.687 20.6112 18.4993 20.8238C18.3116 21.0364 18.0808 21.2066 17.8222 21.3232C17.5637 21.4398 17.2833 21.5001 16.9997 21.5H3.53169C3.24807 21.5001 2.96768 21.4398 2.70913 21.3232C2.45058 21.2066 2.21979 21.0364 2.03206 20.8238C1.84434 20.6112 1.70397 20.3611 1.62029 20.0901C1.53661 19.8191 1.51152 19.5334 1.54669 19.252L1.93669 16.128C2.02738 15.4022 2.3801 14.7346 2.92852 14.2506C3.47693 13.7667 4.18326 13.4997 4.91469 13.5H5.26569" stroke="#222F38" stroke-width="1.5" stroke-linecap="round" stroke-linejoin="round"/>
</svg>
